name analog
datacolumns 19
datarows 44
range 0.0 0.021500000000000002
endheader
time	ground_force_vx	ground_force_vy	ground_force_vz	ground_force_px	ground_force_py	ground_force_pz	l_ground_force_vx	l_ground_force_vy	l_ground_force_vz	l_ground_force_px	l_ground_force_py	l_ground_force_pz	ground_torque_x	ground_torque_y	ground_torque_z	l_ground_torque_x	l_ground_torque_y	l_ground_torque_z
0.0	-0.0	-0.0	-0.0	-2.445226192474365	39.4965934753418	-354.3033142089844	-0.391205370426178	-54.93608856201172	-407.648681640625	-35.136810302734375	16.161865234375	75.11994171142578	-0.0	-0.0	-0.0	72330.7421875	-39557.21875	4501.515625
0.0005	-0.0	-0.0	-0.0	-3.337298393249512	39.484771728515625	-354.384033203125	0.0887107849121093	-54.31363296508789	-405.4448547363281	-35.340057373046875	16.030996322631836	74.40185546875	-0.0	-0.0	-0.0	71988.484375	-39695.21484375	4582.7802734375
0.001	-0.0	-0.0	-0.0	-3.9089953899383545	39.6832160949707	-353.25994873046875	0.8346887826919556	-54.0127182006836	-405.1587219238281	-35.21009826660156	16.251548767089844	76.06275939941406	-0.0	-0.0	-0.0	72223.75	-40119.33984375	4835.5986328125
0.0015	-0.0	-0.0	-0.0	-4.375062942504883	40.1124267578125	-352.6029663085937	1.3144590854644775	-53.27410888671875	-405.3498840332031	-34.96538162231445	16.391027450561523	75.96289825439453	-0.0	-0.0	-0.0	72183.0078125	-40357.25	4745.77294921875
0.002	-0.0	-0.0	-0.0	-4.391307830810547	40.35609817504883	-351.47900390625	1.8828799724578855	-52.97314834594727	-403.3341369628906	-35.33609771728516	16.191062927246094	74.81758117675781	-0.0	-0.0	-0.0	72282.09375	-40910.5390625	4906.6748046875
0.0025	-0.0	-0.0	-0.0	-4.546341419219971	40.914249420166016	-351.91119384765625	2.237610101699829	-52.93723678588867	-403.2563781738281	-34.908653259277344	16.07120132446289	75.311767578125	-0.0	-0.0	-0.0	72333.96875	-41158.01953125	4924.47509765625
0.003	-0.0	-0.0	-0.0	-4.602621078491211	40.85481262207031	-352.7485046386719	3.003056764602661	-52.28643798828125	-402.8563537597656	-35.28303527832031	16.391231536865234	76.02587890625	-0.0	-0.0	-0.0	72307.453125	-41488.51171875	4991.09765625
0.0035	-0.0	-0.0	-0.0	-4.31839656829834	41.0528564453125	-351.701416015625	3.157475233078003	-52.1981201171875	-402.0805358886719	-35.389198303222656	16.197420120239258	75.87135314941406	-0.0	-0.0	-0.0	72478.0390625	-41898.14453125	5007.72216796875
0.004	-0.0	-0.0	-0.0	-5.12125301361084	41.587677001953125	-354.0846862792969	4.008545398712158	-51.73707962036133	-402.7905883789063	-35.40873718261719	16.124176025390625	75.66317749023438	-0.0	-0.0	-0.0	72729.3828125	-41947.4609375	5086.38671875
0.0045000000000000005	-0.0	-0.0	-0.0	-5.012566566467285	41.48448181152344	-353.5890197753906	4.116733551025391	-51.40046691894531	-403.2046508789063	-35.104000091552734	16.354978561401367	75.7491455078125	-0.0	-0.0	-0.0	72789.46875	-42682.85546875	5128.23876953125
0.005	-0.0	-0.0	-0.0	-5.193582534790039	41.4145736694336	-355.0790405273437	4.8263983726501465	-51.40322113037109	-402.9971008300781	-35.45943069458008	15.99516487121582	76.09016418457031	-0.0	-0.0	-0.0	72973.15625	-43072.73046875	5299.35009765625
0.0055	-0.0	-0.0	-0.0	-5.0535664558410645	41.80216217041016	-355.43280029296875	5.164450168609619	-51.22657775878906	-404.949951171875	-35.29987335205078	16.233165740966797	76.14802551269531	-0.0	-0.0	-0.0	73453.828125	-43182.5703125	5170.6640625
0.006	-0.0	-0.0	-0.0	-4.923551082611084	41.25041961669922	-355.16461181640625	5.406793594360352	-51.152740478515625	-404.6577453613281	-35.15718078613281	16.481632232666016	76.65736389160156	-0.0	-0.0	-0.0	73529.8828125	-43636.11328125	5218.11376953125
0.006500000000000001	-0.0	-0.0	-0.0	-4.976728439331055	41.21430587768555	-356.5688781738281	5.5550079345703125	-50.799652099609375	-405.7057495117188	-35.353240966796875	16.211780548095703	76.0820541381836	-0.0	-0.0	-0.0	73841.2109375	-43871.32421875	5300.91064453125
0.007	-0.0	-0.0	-0.0	-4.568682670593262	41.1782455444336	-356.9222106933594	5.675537586212158	-50.92589569091797	-405.9298400878906	-35.35331726074219	16.194534301757812	75.30648040771484	-0.0	-0.0	-0.0	74019.734375	-44339.74609375	5242.28955078125
0.0075	-0.0	-0.0	-0.0	-4.657779693603516	41.17659759521485	-355.23101806640625	5.996496200561523	-50.29248046875	-407.8021545410156	-35.28271484375	15.855027198791504	76.56964111328125	-0.0	-0.0	-0.0	74342.8515625	-44765.8125	5319.0341796875
0.008	-0.0	-0.0	-0.0	-4.889333724975586	40.71387481689453	-355.51568603515625	6.173949241638184	-50.37901306152344	-408.0909423828125	-35.17586135864258	16.374473571777344	75.38141632080078	-0.0	-0.0	-0.0	74586.4765625	-45057.8984375	5319.1484375
0.0085	-0.0	-0.0	-0.0	-5.1742095947265625	40.678035736083984	-355.1620178222656	6.387176513671875	-50.28920364379883	-409.8307189941406	-34.9945068359375	16.159494400024414	75.17210388183594	-0.0	-0.0	-0.0	74951.0703125	-45394.64453125	5325.0693359375
0.009000000000000001	-0.0	-0.0	-0.0	-5.24720573425293	40.59021759033203	-353.3955383300781	6.707558155059815	-49.77657318115234	-410.9514770507813	-35.371089935302734	16.249309539794922	75.66450500488281	-0.0	-0.0	-0.0	75083.1875	-45934.015625	5343.60546875
0.0095	-0.0	-0.0	-0.0	-5.066573143005371	40.750030517578125	-353.03790283203125	6.776631832122803	-49.77788543701172	-411.0877075195313	-35.13960266113281	16.103763580322266	77.27841186523438	-0.0	-0.0	-0.0	75412.5625	-46337.4453125	5207.26025390625
0.01	-0.0	-0.0	-0.0	-4.888214111328125	40.60763931274414	-354.6688232421875	6.600279808044434	-49.38909530639648	-413.1867980957031	-35.33540344238281	16.21364402770996	75.6674575805664	-0.0	-0.0	-0.0	75657.3828125	-46497.171875	5248.48486328125
0.0105	-0.0	-0.0	-0.0	-5.067429065704346	41.05332946777344	-353.5304260253906	6.528954029083252	-49.56501770019531	-413.1149291992188	-35.15718078613281	16.284503936767578	75.73626708984375	-0.0	-0.0	-0.0	75838.4921875	-46793.265625	5260.333984375
0.011	-0.0	-0.0	-0.0	-5.013925075531006	41.01762008666992	-354.0260009765625	6.404674530029297	-49.54846954345703	-414.7232666015625	-35.318016052246094	16.17635154724121	75.66381072998047	-0.0	-0.0	-0.0	76115.765625	-47206.51171875	5260.26220703125
0.0115	-0.0	-0.0	-0.0	-4.97767972946167	40.98278427124024	-354.5227355957031	6.297901630401611	-49.31894302368164	-414.371826171875	-35.121612548828125	16.320276260375977	77.1386489868164	-0.0	-0.0	-0.0	76208.3671875	-47317.7578125	5212.82275390625
0.012	-0.0	-0.0	-0.0	-4.942313194274902	41.231929779052734	-353.1809387207031	6.387176513671875	-49.336795806884766	-415.28125	-35.03199768066406	16.176570892333984	76.507568359375	-0.0	-0.0	-0.0	76566.5703125	-47754.328125	5112.12451171875
0.0125	-0.0	-0.0	-0.0	-4.656827926635742	41.14258193969727	-352.6148986816406	6.742207050323486	-49.336273193359375	-417.0971374511719	-35.246524810791016	16.33850860595703	75.1736831665039	-0.0	-0.0	-0.0	76699.7265625	-47676.2578125	5207.22705078125
0.013000000000000001	-0.0	-0.0	-0.0	-4.85302734375	41.748779296875	-351.7667236328125	6.866214752197266	-49.46014404296875	-416.6077270507813	-35.300071716308594	16.194231033325195	76.64771270751953	-0.0	-0.0	-0.0	76706.375	-47913.8046875	5260.65380859375
0.0135	-0.0	-0.0	-0.0	-4.0497822761535645	41.65948867797852	-351.1332397460937	6.830541610717773	-49.44240951538086	-418.28363037109375	-35.3180046081543	16.21223258972168	76.08565521240234	-0.0	-0.0	-0.0	76825.5	-48229.453125	5349.701171875
0.014	-0.0	-0.0	-0.0	-4.28160285949707	41.6239013671875	-349.7890319824219	6.813214302062988	-49.86687850952149	-418.4934387207031	-35.40739059448242	16.104564666748047	75.87158203125	-0.0	-0.0	-0.0	77165.9765625	-48475.25	5367.1015625
0.0145	-0.0	-0.0	-0.0	-4.549736022949219	41.26737976074219	-349.7914428710937	6.990201473236084	-49.8486557006836	-418.2150573730469	-35.62269592285156	16.086238861083984	75.31497955322266	-0.0	-0.0	-0.0	77349.484375	-48499.34375	5367.3291015625
0.015	-0.0	-0.0	-0.0	-4.531559467315674	41.40932083129883	-347.7449645996094	7.15023136138916	-49.63608169555664	-419.3992614746094	-35.15616226196289	16.28348159790039	75.17953491210938	-0.0	-0.0	-0.0	77021.34375	-48758.15234375	5379.5146484375
0.0155	-0.0	-0.0	-0.0	-4.371315002441406	41.33724594116211	-347.4568176269531	7.416401386260986	-49.5836181640625	-418.6328125	-35.067718505859375	16.140310287475586	76.92587280273438	-0.0	-0.0	-0.0	77256.25	-48755.44921875	5415.14697265625
0.016	-0.0	-0.0	-0.0	-4.354191780090332	41.19535446166992	-348.8109436035156	7.398265361785889	-49.954959869384766	-417.8587646484375	-35.371604919433594	16.1773738861084	76.1566162109375	-0.0	-0.0	-0.0	77222.9921875	-48605.2578125	5450.75634765625
0.0165	-0.0	-0.0	-0.0	-4.389701843261719	41.536128997802734	-346.4075012207031	7.2925190925598145	-49.617408752441406	-418.2118835449219	-35.44560623168945	16.140241622924805	76.36234283447266	-0.0	-0.0	-0.0	77362.8125	-48727.33984375	5527.97607421875
0.017	-0.0	-0.0	-0.0	-4.335940837860107	41.37495422363281	-347.0966491699219	7.239084243774414	-49.63820266723633	-417.9400939941406	-35.42555236816406	16.248865127563477	76.22953033447266	-0.0	-0.0	-0.0	77337.515625	-48777.43359375	5456.37109375
0.0175	-0.0	-0.0	-0.0	-4.157557964324951	41.39529037475586	-346.60943603515625	7.540416717529297	-49.49675369262695	-416.95306396484375	-35.33609771728516	16.175765991210938	75.24263000488281	-0.0	-0.0	-0.0	77262.9453125	-48957.59375	5552.26171875
0.018000000000000002	-0.0	-0.0	-0.0	-3.785950183868408	41.41226959228516	-346.3958740234375	7.309414863586426	-48.96519088745117	-418.28363037109375	-35.27991485595703	16.55231475830078	75.7322006225586	-0.0	-0.0	-0.0	77299.1796875	-49030.44140625	5463.2841796875
0.0185	-0.0	-0.0	-0.0	-3.887904644012451	41.60941696166992	-344.2682189941406	7.185573577880859	-48.839942932128906	-418.7786254882813	-35.53153991699219	16.554412841796875	76.1566162109375	-0.0	-0.0	-0.0	77559.4140625	-48942.6953125	5325.38232421875
0.019	-0.0	-0.0	-0.0	-3.655349493026733	41.41044235229492	-345.69793701171875	6.828583717346191	-48.50712585449219	-419.8829956054688	-35.444435119628906	16.19701385498047	76.72007751464844	-0.0	-0.0	-0.0	77644.671875	-49194.84375	5384.453125
0.0195	-0.0	-0.0	-0.0	-3.5731618404388428	41.38931655883789	-345.9025573730469	6.9544782638549805	-48.75579833984375	-419.33990478515625	-35.21135330200195	16.43147087097168	75.87977600097656	-0.0	-0.0	-0.0	77671.8359375	-49105.3984375	5456.97705078125
0.02	-0.0	-0.0	-0.0	-3.1738460063934326	40.98114013671875	-345.0466613769531	6.75588321685791	-48.34680938720703	-419.2574462890625	-35.3171272277832	16.03367042541504	76.72025299072266	-0.0	-0.0	-0.0	77848.9296875	-49315.359375	5403.89404296875
0.0205	-0.0	-0.0	-0.0	-3.335923194885254	40.58943939208984	-345.549072265625	7.080687999725342	-48.22364044189453	-419.8178405761719	-35.314170837402344	16.17827796936035	75.81696319580078	-0.0	-0.0	-0.0	77882.5703125	-49031.0390625	5265.83056640625
0.021	-0.0	-0.0	-0.0	-3.2656731605529785	40.78947830200195	-346.736328125	6.513535022735596	-48.06304931640625	-419.542724609375	-35.35519790649414	16.120731353759766	76.08167266845703	-0.0	-0.0	-0.0	77633.4609375	-49039.60546875	5302.28759765625
0.021500000000000002	-0.0	-0.0	-0.0	-3.406022310256958	40.84076690673828	-347.0250244140625	6.298465728759766	-47.99631118774414	-418.4954223632813	-35.33609771728516	16.06598663330078	75.94351959228516	-0.0	-0.0	-0.0	77713.328125	-48908.85546875	5291.44677734375
